P3
2 10
255
255 204 153 255 204 153
255 204 153 255 204 153
153 255 204 153 255 204
204 153 255 204 153 255
255 204 153 255 204 153
0 0 0 0 0 0
0 0 0 0 0 0
0 0 0 0 0 0
0 0 0 0 0 0
0 0 0 0 0 0
